<svg width="25" height="26" viewBox="0 0 25 26" fill="none" xmlns="http://www.w3.org/2000/svg">
  <path d="M14.3798 9.90786L13.6547 9.48226C10.291 7.50905 7.54122 6.38857 5.53031 6.05738C2.87195 5.70452 2.18641 6.91012 1.9579 7.3125C1.34853 8.38345 1.55115 9.57512 2.54746 10.9185C2.11633 11.2914 1.7172 11.683 1.37138 12.0606C-0.132227 10.0626 -0.398825 8.20857 0.573114 6.5C1.77357 4.38905 4.06935 4.21726 5.77862 4.46024C7.96016 4.80071 10.7419 5.94131 14.2244 7.93929C14.2732 8.54905 14.3372 9.21143 14.3814 9.90786H14.3798ZM23.2888 14.0849C24.1632 14.5971 24.4618 15.7331 23.9575 16.6214C23.7961 16.9077 23.5691 17.1321 23.307 17.29C23.307 18.0932 23.109 18.8469 22.7388 19.4985C21.6526 21.4082 19.7575 21.7255 18.3453 21.6574C16.4898 21.597 14.197 20.8325 11.298 19.3561L12.1176 17.9152C17.0854 20.4704 20.1932 20.7304 21.354 18.686C21.5734 18.3006 21.6663 17.8796 21.6892 17.4138C21.6115 17.3813 21.5353 17.3457 21.4607 17.3024C20.5862 16.7901 20.2876 15.6542 20.7919 14.7658C21.2961 13.8775 22.4143 13.5742 23.2888 14.0864V14.0849ZM7.23349 10.9463C2.57031 14.0415 0.797056 16.6446 1.9579 18.689C2.17727 19.076 2.49109 19.3654 2.87652 19.6192C2.94202 19.5681 3.01058 19.5186 3.0837 19.4752C3.95814 18.9614 5.07633 19.2663 5.58058 20.1546C6.08635 21.043 5.78624 22.1774 4.9118 22.6912C4.03736 23.205 2.91917 22.9001 2.41492 22.0118C2.25192 21.7239 2.17422 21.4113 2.17118 21.1018C1.48716 20.701 0.943304 20.1515 0.573114 19.5C-0.511558 17.5902 0.164839 15.764 0.929593 14.5554C1.90915 12.952 3.70678 11.3177 6.41541 9.50548L7.23501 10.9463H7.23349ZM22.7403 6.5C23.9393 8.61095 22.9384 10.7173 21.8766 12.0993C20.4948 13.8481 18.132 15.7254 14.6876 17.7899C14.1437 17.5283 13.5465 17.2529 12.9311 16.9433L13.6562 16.5177C17.0199 14.5445 19.3507 12.6858 20.638 11.0825C22.2681 8.92048 21.5825 7.71488 21.354 7.3125C20.7447 6.24155 19.628 5.82369 17.9842 6.02798C17.8822 5.46155 17.7481 4.91524 17.5988 4.42155C20.0545 4.0981 21.7669 4.79143 22.7388 6.5H22.7403ZM14.4362 22.0536C14.9694 22.247 15.5026 22.4018 15.9977 22.5179C15.0456 24.8393 13.5983 26 11.656 26C9.25658 26 7.96168 24.0655 7.31423 22.4405C6.51443 20.3512 6.09549 17.3333 6.05741 13.2708C6.55252 12.9226 7.08571 12.5357 7.65699 12.1488V13C7.65699 16.9464 8.07593 19.9256 8.79956 21.8601C9.82786 24.375 11.1989 24.375 11.656 24.375C12.8747 24.375 13.7887 23.6012 14.4362 22.0536ZM6.7658 2.22238C6.7658 1.19631 7.58387 0.365238 8.5939 0.365238C8.91991 0.365238 9.22459 0.451905 9.48966 0.603571C10.1737 0.202738 10.9141 0 11.656 0C13.8268 0 15.0456 1.50893 15.6915 2.78571C16.5675 4.4494 17.0626 6.84821 17.253 10.1369H15.6153C15.3106 4.4881 13.9776 1.625 11.6544 1.625C11.2157 1.625 10.8105 1.75345 10.4022 1.96548C10.4144 2.0506 10.422 2.13571 10.422 2.22238C10.422 3.24845 9.60392 4.07952 8.5939 4.07952C7.58387 4.07952 6.7658 3.24845 6.7658 2.22238ZM9.52318 13C9.52318 11.8037 10.4784 10.8333 11.656 10.8333C12.8336 10.8333 13.7887 11.8037 13.7887 13C13.7887 14.1963 12.8336 15.1667 11.656 15.1667C10.4784 15.1667 9.52318 14.1963 9.52318 13Z" fill="#fb4d40"/>
</svg>
